<svg xmlns="http://www.w3.org/2000/svg" viewBox="0 0 68.73 68.73"><defs><style>.cls-1{fill:#918a78;}.cls-2{fill:#f2f2f2;}</style></defs><g id="圖層_2" data-name="圖層 2"><g id="icon"><rect class="cls-1" width="68.73" height="68.73" rx="16.16"/><path class="cls-2" d="M47.75,47.2C45.5,46,45,43.92,45,41.45H60.29c-.1-2.31-.1-4.51-.33-6.69-.67-6.43-3.79-9.66-10-10.1-4.48-.32-8.56,1.51-10.37,6.33a23.92,23.92,0,0,0-.41,15.43,9.26,9.26,0,0,0,6,6.3,13.94,13.94,0,0,0,9,.35,11.48,11.48,0,0,0,5.56-3.51L56.6,45.19C53.35,47.77,50.23,48.49,47.75,47.2ZM45.21,32.61a3.44,3.44,0,0,1,4-2.24l.26,0h0l.19,0,.12,0,.16.06,0,0,.19.08.38.23.11.08.19.16.15.15a1.12,1.12,0,0,1,.17.2l.06.07.1.15s0,0,0,0,.09.14.13.22a3.56,3.56,0,0,1,.24.52A4.91,4.91,0,0,1,52,33l.06.32c.14.87.12,1.78.18,2.77H44.43A24.68,24.68,0,0,1,45.21,32.61Z"/><rect class="cls-2" x="39.7" y="15.14" width="16.4" height="4.31"/><rect class="cls-2" x="39.7" y="15.14" width="16.4"/><path class="cls-2" d="M51.29,31.55l-.06-.07Z"/><path class="cls-2" d="M50.72,31l-.11-.08Z"/><path class="cls-2" d="M23.66,23l-.09-.14Z"/><path class="cls-2" d="M23.36,29.71l.05-.06Z"/><path class="cls-2" d="M22.46,30.32l.14-.06Z"/><path class="cls-2" d="M22.39,21.85a.42.42,0,0,0-.14-.06Z"/><path class="cls-2" d="M22.56,46.6a3.24,3.24,0,0,1-.55.19A3.24,3.24,0,0,0,22.56,46.6Z"/><path class="cls-2" d="M22.05,30.45l.1,0Z"/><path class="cls-2" d="M21.57,46.87a3.56,3.56,0,0,1-.47.05h-.46l.46,0A3.57,3.57,0,0,0,21.57,46.87Z"/><path class="cls-2" d="M32.39,40.38a7.48,7.48,0,0,0-4.75-6.62,3.17,3.17,0,0,1-.49-.3l.37-.18a8.24,8.24,0,0,0,4.41-7.67c0-4.08-1.38-7.39-5.25-9.25a15.59,15.59,0,0,0-6.84-1.29H8.43V53c.34,0,.62,0,.89,0,3.74,0,7.48,0,11.21,0a24.46,24.46,0,0,0,4.68-.5c3.64-.79,6.21-2.92,7-6.67A19.54,19.54,0,0,0,32.39,40.38ZM16,21.28h0c1.87.09,3.71.1,5.53.32l.23,0,.22.06a.64.64,0,0,1,.18.06l.11,0,.14.06.19.1.16.1h0l.16.12.17.14.14.15.18.2.09.12.07.11.09.14a3.72,3.72,0,0,1,.21.39l.07.18,0,0,.07.19c0,.15.1.3.14.44s.07.3.1.44l.06.3a5.93,5.93,0,0,1,.07.59,7.44,7.44,0,0,1-.29,2.76,3.11,3.11,0,0,1-.7,1.28l-.05.06-.17.16-.13.1a2.2,2.2,0,0,1-.32.21l-.14.08-.14.06-.31.11-.1,0-.17,0a1.81,1.81,0,0,1-.23,0c-1.85.21-3.73.21-5.67.3h0Zm8.47,23a2.82,2.82,0,0,1-.07.31l-.09.27a2.08,2.08,0,0,1-.13.3l-.11.2-.19.29-.14.16a2.2,2.2,0,0,1-.27.26l-.14.12,0,0-.2.14h0l-.21.13-.06,0-.23.1a3.24,3.24,0,0,1-.55.19l-.22,0-.22,0a3.56,3.56,0,0,1-.47.05h-1c-.61,0-1.23,0-1.84,0H17c-.31,0-.62,0-1.06,0V36.52c2.28.11,4.56.11,6.82.36a2.31,2.31,0,0,1,1.95,2.32A22,22,0,0,1,24.45,44.26Z"/></g></g></svg>