<svg xmlns="http://www.w3.org/2000/svg" viewBox="0 0 68.73 68.73"><defs><style>.cls-1{fill:#918a78;}.cls-2{fill:#f2f2f2;}</style></defs><g id="圖層_2" data-name="圖層 2"><g id="icon"><rect class="cls-1" width="68.73" height="68.73" rx="16.16"/><path class="cls-2" d="M50.63,14H18.09a7.86,7.86,0,0,0-7.61,8.07V46.64a7.86,7.86,0,0,0,7.61,8.07H50.63a7.86,7.86,0,0,0,7.62-8.07V22.09A7.86,7.86,0,0,0,50.63,14ZM15.1,22.09a3.09,3.09,0,0,1,3-3.18H50.63a3.1,3.1,0,0,1,3,3.18V23.2L36.92,36.9c-2,1.34-3.15,1.34-5.1,0L15.1,23ZM53.63,46.64a3.1,3.1,0,0,1-3,3.18H18.09a3.09,3.09,0,0,1-3-3.18V29.2l14,11.62.17.13a8.9,8.9,0,0,0,5.12,1.84A9,9,0,0,0,39.5,41L53.63,29.38Z"/></g></g></svg>