<svg xmlns="http://www.w3.org/2000/svg" viewBox="0 0 68.73 68.73"><defs><style>.cls-1{fill:#918a78;}.cls-2{fill:#f2f2f2;}</style></defs><g id="圖層_2" data-name="圖層 2"><g id="icon"><rect class="cls-1" width="68.73" height="68.73" rx="16.16"/><path class="cls-2" d="M39.11,23.9c0,1.61,0,3.21,0,4.82a4.38,4.38,0,0,0,0,.47H49.93c-.48,2.78-.94,5.49-1.41,8.24H39.15V56.54H27.8V37.42h-7c-.78,0-1.57,0-2.36,0V29.17h9.42V22.91a10.3,10.3,0,0,1,.59-3.5,10,10,0,0,1,6-5.92,18.27,18.27,0,0,1,6.62-1.28c2.57-.06,5.13,0,7.68.18.51,0,1,.08,1.49.13a69.48,69.48,0,0,1,0,7.37h-6a10.11,10.11,0,0,0-2.34.26,3.19,3.19,0,0,0-2.51,2A5.19,5.19,0,0,0,39.11,23.9Z"/></g></g></svg>