<svg xmlns="http://www.w3.org/2000/svg" viewBox="0 0 68.73 68.73"><defs><style>.cls-1{fill:#918a78;}.cls-2{fill:#f2f2f2;}</style></defs><g id="圖層_2" data-name="圖層 2"><g id="icon"><rect class="cls-1" width="68.73" height="68.73" rx="16.16"/><path class="cls-2" d="M34.64,22.75A11.54,11.54,0,1,0,46.06,34.39,11.54,11.54,0,0,0,34.64,22.75Zm-.17,17.37a5.84,5.84,0,1,1,5.9-5.78A5.84,5.84,0,0,1,34.47,40.12Z"/><path class="cls-2" d="M34.36,11.69H13.57a1.88,1.88,0,0,0-1.88,1.88v20.8A22.68,22.68,0,1,0,34.36,11.69ZM18.78,34.05a15.75,15.75,0,1,1,15.6,15.89A15.75,15.75,0,0,1,18.78,34.05Z"/></g></g></svg>