<svg xmlns="http://www.w3.org/2000/svg" viewBox="0 0 68.73 68.73"><defs><style>.cls-1{fill:#918a78;}.cls-2{fill:#f2f2f2;}</style></defs><g id="圖層_2" data-name="圖層 2"><g id="icon"><rect class="cls-1" width="68.73" height="68.73" rx="16.16"/><path class="cls-2" d="M47.26,12.44H21.47c-3,0-5.53,1.84-5.53,4.11V52.18c0,2.27,2.48,4.11,5.53,4.11H47.26c3.05,0,5.53-1.84,5.53-4.11V16.55C52.79,14.28,50.31,12.44,47.26,12.44ZM34.36,53.83a3,3,0,1,1,2.82-3A2.92,2.92,0,0,1,34.36,53.83Zm12.9-9.53c0,.57-.62,1-1.38,1h-23c-.76,0-1.38-.46-1.38-1V17.58c0-.57.62-1,1.38-1h23c.76,0,1.38.46,1.38,1Z"/></g></g></svg>