<?xml version="1.0" encoding="utf-8"?>
<!-- Generator: Adobe Illustrator 24.2.3, SVG Export Plug-In . SVG Version: 6.00 Build 0)  -->
<svg version="1.1" id="圖層_1" xmlns="http://www.w3.org/2000/svg" xmlns:xlink="http://www.w3.org/1999/xlink" x="0px" y="0px"
	 viewBox="0 0 55.5 55.5" style="enable-background:new 0 0 55.5 55.5;" xml:space="preserve">
<style type="text/css">
	.st0{fill:#F3F1F1;}
	.st1{fill:#BA7F65;}
</style>
<g id="圖層_2_1_">
	<g id="icon">
		<path class="st0" d="M29.9,44.6c-1,1-2.7,1.1-3.8,0l0,0L11.2,29.7c-1-1.1-1-2.7,0-3.8L26.1,11c1-1,2.7-1.1,3.8,0l0,0l1.2,1.2
			c1.1,1,1.1,2.7,0.1,3.8c0,0,0,0-0.1,0.1l-8.5,8.1H43c1.5,0,2.7,1.2,2.7,2.7l0,0v1.8c0,1.5-1.2,2.7-2.7,2.7l0,0H22.6l8.5,8.1
			c1.1,1,1.1,2.7,0.1,3.8c0,0,0,0-0.1,0.1L29.9,44.6z"/>
		<path class="st1" d="M55.6,27.8c0,15.4-12.4,27.8-27.8,27.8C12.5,55.6,0,43.2,0,27.8S12.5,0,27.8,0l0,0
			C43.2,0,55.6,12.5,55.6,27.8L55.6,27.8z M26.1,44.6c1,1,2.7,1.1,3.8,0l0,0l1.2-1.2c1.1-1,1.1-2.7,0.1-3.8c0,0,0,0-0.1-0.1
			l-8.5-8.1H43c1.5,0,2.7-1.2,2.7-2.7l0,0v-1.8c0-1.5-1.2-2.7-2.7-2.7l0,0H22.6l8.5-8.1c1.1-1,1.1-2.7,0.1-3.8c0,0,0,0-0.1-0.1
			L29.9,11c-1-1-2.7-1.1-3.8,0l0,0L11.2,25.9c-1,1.1-1,2.7,0,3.8L26.1,44.6z"/>
	</g>
</g>
</svg>
