<?xml version="1.0" encoding="utf-8"?>
<!-- Generator: Adobe Illustrator 24.2.3, SVG Export Plug-In . SVG Version: 6.00 Build 0)  -->
<svg version="1.1" id="圖層_1" xmlns="http://www.w3.org/2000/svg" xmlns:xlink="http://www.w3.org/1999/xlink" x="0px" y="0px"
	 viewBox="0 0 55.5 55.5" style="enable-background:new 0 0 55.5 55.5;" xml:space="preserve">
<style type="text/css">
	.st0{fill:#F3F1F1;}
	.st1{fill:#BA7F65;}
</style>
<g id="圖層_2_1_">
	<g id="icon">
		<path class="st0" d="M25.7,11c1-1,2.7-1.1,3.8,0c0,0,0,0,0,0l14.9,14.9c1,1.1,1,2.7,0,3.8L29.5,44.6c-1,1-2.7,1.1-3.8,0
			c0,0,0,0,0,0l-1.2-1.2c-1.1-1-1.1-2.7-0.1-3.8c0,0,0,0,0.1-0.1l8.5-8.1H12.6c-1.5,0-2.7-1.2-2.7-2.7c0,0,0,0,0,0v-1.8
			c0-1.5,1.2-2.7,2.7-2.7c0,0,0,0,0,0H33l-8.5-8.1c-1.1-1-1.1-2.7-0.1-3.8c0,0,0,0,0.1-0.1L25.7,11z"/>
		<path class="st1" d="M0,27.8C0,12.4,12.4,0,27.8,0c15.3,0,27.8,12.4,27.8,27.8S43.1,55.6,27.8,55.6c0,0,0,0,0,0
			C12.4,55.6,0,43.1,0,27.8C0,27.8,0,27.8,0,27.8z M29.5,11c-1-1-2.7-1.1-3.8,0c0,0,0,0,0,0l-1.2,1.2c-1.1,1-1.1,2.7-0.1,3.8
			c0,0,0,0,0.1,0.1l8.5,8.1H12.6c-1.5,0-2.7,1.2-2.7,2.7c0,0,0,0,0,0v1.8c0,1.5,1.2,2.7,2.7,2.7c0,0,0,0,0,0H33l-8.5,8.1
			c-1.1,1-1.1,2.7-0.1,3.8c0,0,0,0,0.1,0.1l1.2,1.2c1,1,2.7,1.1,3.8,0c0,0,0,0,0,0l14.9-14.9c1-1.1,1-2.7,0-3.8L29.5,11z"/>
	</g>
</g>
</svg>
