<?xml version="1.0" encoding="utf-8"?>
<!-- Generator: Adobe Illustrator 24.2.3, SVG Export Plug-In . SVG Version: 6.00 Build 0)  -->
<svg version="1.1" id="圖層_1" xmlns="http://www.w3.org/2000/svg" xmlns:xlink="http://www.w3.org/1999/xlink" x="0px" y="0px"
	 viewBox="0 0 75 75" style="enable-background:new 0 0 75 75;" xml:space="preserve">
<style type="text/css">
	.st0{fill:#F3F1F1;}
	.st1{fill:#BA7F65;}
</style>
<g id="圖層_2_1_">
	<g id="icon">
		<path class="st0" d="M14.8,40.4c-1.3-1.3-1.5-3.6,0-5.1l0,0l20.1-20.1c1.5-1.3,3.6-1.3,5.1,0l20.1,20.1c1.3,1.3,1.5,3.6,0,5.1l0,0
			l-1.6,1.6c-1.3,1.5-3.6,1.5-5.1,0.1c0,0,0,0-0.1-0.1L42.4,30.6v27.5c0,2-1.6,3.6-3.6,3.6l0,0h-2.4c-2,0-3.6-1.6-3.6-3.6l0,0V30.6
			L21.7,42.1c-1.3,1.5-3.6,1.5-5.1,0.1c0,0,0,0-0.1-0.1L14.8,40.4z"/>
		<path class="st1" d="M37.5,75.1C16.7,75.1,0,58.4,0,37.6C0,17,16.7,0.1,37.5,0.1S75,17,75,37.6l0,0C75,58.4,58.1,75.1,37.5,75.1
			L37.5,75.1z M14.8,35.3c-1.3,1.3-1.5,3.6,0,5.1l0,0l1.6,1.6c1.3,1.5,3.6,1.5,5.1,0.1c0,0,0,0,0.1-0.1l10.9-11.5v27.5
			c0,2,1.6,3.6,3.6,3.6l0,0h2.4c2,0,3.6-1.6,3.6-3.6l0,0V30.6l10.9,11.5c1.3,1.5,3.6,1.5,5.1,0.1c0,0,0,0,0.1-0.1l1.6-1.6
			c1.3-1.3,1.5-3.6,0-5.1l0,0L40.1,15.2c-1.5-1.3-3.6-1.3-5.1,0L14.8,35.3z"/>
	</g>
</g>
</svg>
